<?xml version="1.0" encoding="UTF-8" standalone="no"?>
<svg
   width="24"
   height="24"
   viewBox="0 0 24 24"
   fill="none"
   stroke="currentColor"
   stroke-width="2"
   stroke-linecap="round"
   stroke-linejoin="round"
   class="feather feather-volume-x"
   version="1.1"
   id="svg2"
   sodipodi:docname="volume-x.svg"
   inkscape:version="1.4.3 (0d15f75, 2025-12-25)"
   xmlns:inkscape="http://www.inkscape.org/namespaces/inkscape"
   xmlns:sodipodi="http://sodipodi.sourceforge.net/DTD/sodipodi-0.dtd"
   xmlns="http://www.w3.org/2000/svg"
   xmlns:svg="http://www.w3.org/2000/svg">
  <defs
     id="defs2" />
  <sodipodi:namedview
     id="namedview2"
     pagecolor="#ffffff"
     bordercolor="#000000"
     borderopacity="0.25"
     inkscape:showpageshadow="2"
     inkscape:pageopacity="0.0"
     inkscape:pagecheckerboard="0"
     inkscape:deskcolor="#d1d1d1"
     inkscape:zoom="34.375"
     inkscape:cx="12"
     inkscape:cy="12"
     inkscape:window-width="1920"
     inkscape:window-height="1027"
     inkscape:window-x="-8"
     inkscape:window-y="-8"
     inkscape:window-maximized="1"
     inkscape:current-layer="svg2" />
  <polygon
     points="11 5 6 9 2 9 2 15 6 15 11 19 11 5"
     id="polygon1" />
  <line
     x1="23"
     y1="9"
     x2="17"
     y2="15"
     id="line1" />
  <line
     x1="17"
     y1="9"
     x2="23"
     y2="15"
     id="line2" />
  <path
     style="fill:#b3b3b3;stroke-width:0.0581818"
     d="m 10.842675,19.964801 c -0.08453,-0.01253 -0.206283,-0.04961 -0.270567,-0.08241 -0.06428,-0.0328 -1.1957607,-0.922665 -2.514394,-1.977488 L 5.6601984,15.987043 3.717372,15.978976 1.7745455,15.970909 1.613218,15.89524 C 1.3062886,15.751279 1.1183349,15.523443 1.0432145,15.204289 c -0.0567337,-0.241037 -0.0567337,-6.1675411 0,-6.4085785 0.07512,-0.319154 0.2630741,-0.5469893 0.5700035,-0.6909509 L 1.7745455,8.0290909 3.717372,8.0210237 5.6601984,8.0129568 8.057714,6.0950954 c 1.3186333,-1.0548237 2.449277,-1.9442678 2.51254,-1.9765424 0.06326,-0.032275 0.185019,-0.069358 0.270567,-0.082408 0.549646,-0.083843 1.037682,0.2796193 1.128709,0.8405992 0.0417,0.2570177 0.04166,13.9897378 -4.2e-5,14.2467678 -0.03741,0.230576 -0.11518,0.389048 -0.270712,0.551664 -0.220904,0.230962 -0.534992,0.33722 -0.856101,0.289625 z M 10.014709,9.5266877 10.007273,7.0533754 8.2763636,8.4393873 C 7.2257219,9.2806807 6.4825728,9.8554223 6.3854545,9.9017908 l -0.16,0.076391 -1.6218181,0.00842 -1.6218182,0.00842 V 12 14.004971 l 1.6218182,0.0084 1.6218181,0.0084 0.16,0.07639 c 0.097118,0.04637 0.8402674,0.62111 1.8909091,1.462404 l 1.7309094,1.386012 0.0074,-2.473313 c 0.0041,-1.360321 0.0041,-3.586303 0,-4.9466243 z"
     id="path2" />
  <path
     style="fill:#cccccc;stroke-width:0.0581818"
     d="m 16.722158,15.945468 c -0.173128,-0.05683 -0.304181,-0.144296 -0.444859,-0.296914 -0.191293,-0.207528 -0.248474,-0.359292 -0.24573,-0.65219 0.0039,-0.420481 -0.03022,-0.376054 1.358831,-1.767439 l 1.22719,-1.229257 -1.212692,-1.214379 C 16.01644,9.394899 16.031618,9.414568 16.03004,9.0036364 c -8.15e-4,-0.212278 0.01042,-0.2704292 0.07941,-0.4108957 0.09479,-0.1930197 0.317358,-0.4114314 0.50969,-0.500172 0.108749,-0.050176 0.188546,-0.062835 0.384501,-0.060999 0.420477,0.00394 0.376071,-0.030199 1.767273,1.3586647 L 20,10.617259 21.229091,9.3902341 c 1.391202,-1.3888634 1.346796,-1.3547248 1.767273,-1.3586647 0.195955,-0.00184 0.275752,0.010823 0.384501,0.060999 0.192332,0.088741 0.4149,0.3071523 0.50969,0.500172 0.06954,0.141602 0.08003,0.1969017 0.07796,0.4108957 -0.0041,0.4205244 0.03004,0.3761495 -1.358745,1.7672729 L 21.382741,12 l 1.227025,1.229091 c 1.388863,1.391202 1.354725,1.346796 1.358665,1.767273 0.0018,0.195955 -0.01082,0.275752 -0.061,0.384501 -0.08874,0.192332 -0.307152,0.4149 -0.500172,0.50969 -0.141602,0.06954 -0.196901,0.08003 -0.410895,0.07796 -0.420525,-0.0041 -0.37615,0.03004 -1.767273,-1.358745 L 20,13.382741 18.770909,14.609766 c -1.016026,1.014318 -1.254306,1.237817 -1.374545,1.289279 -0.183489,0.07853 -0.508255,0.100894 -0.674206,0.04642 z"
     id="path3" />
  <path
     style="fill:#ececec;stroke-width:0.0581818"
     d="m 10.815899,19.912127 c -0.06725,-0.01375 -0.152346,-0.04088 -0.189091,-0.06029 -0.128665,-0.06798 -0.7153479,-0.528501 -3.2355068,-2.539723 l -1.7141536,-1.367986 -1.951301,-0.01189 -1.9513011,-0.0119 -0.16,-0.08132 C 1.4143426,15.737265 1.2298015,15.549226 1.1444415,15.36 1.0800255,15.217203 1.0783564,15.18518 1.0530861,13.607273 1.0383166,12.685045 1.0381428,11.314955 1.0526784,10.392727 l 0.025333,-1.6072725 0.075185,-0.16 C 1.2466259,8.4266281 1.4061553,8.2658644 1.6145455,8.1605361 l 0.16,-0.08087 1.9514175,-0.011896 1.9514177,-0.011896 1.7140369,-1.368581 C 9.9619025,4.634876 10.518126,4.2010637 10.661818,4.1366275 c 0.08929,-0.04004 0.196306,-0.059304 0.336601,-0.060591 0.373871,-0.00343 0.692232,0.2108762 0.862843,0.5808266 L 11.927273,4.8 l 0.01609,3.6 c 0.0089,1.98 0.0089,5.22 0,7.2 l -0.01609,3.6 -0.07703,0.164304 c -0.187009,0.398881 -0.625866,0.631314 -1.034342,0.547823 z m -0.76499,-7.91552 c 0,-4.7686067 -0.0022,-4.9773657 -0.052063,-4.9643234 -0.028635,0.00749 -0.6340893,0.4778563 -1.3454546,1.0452629 -1.5711534,1.2531994 -2.1815977,1.725088 -2.328663,1.8001152 -0.1050659,0.053601 -0.1776238,0.056884 -1.2571051,0.056884 -0.6300821,0 -1.3636945,0.0086 -1.6302499,0.019114 L 2.9527273,9.9727732 V 12 14.027227 l 0.4846461,0.01911 c 0.2665554,0.01051 1.002919,0.01927 1.6363636,0.01946 l 1.1517175,3.5e-4 0.1263564,0.07224 c 0.1711337,0.09783 0.7309033,0.531692 2.2986516,1.781609 0.7274837,0.58 1.3401909,1.054545 1.3615715,1.054545 0.03229,0 0.03888,-0.843496 0.03888,-4.977938 z"
     id="path4" />
  <path
     style="fill:#ececec;stroke-width:0.0581818"
     d="m 16.633119,15.855781 c -0.174134,-0.08107 -0.390352,-0.289908 -0.477969,-0.461651 -0.06854,-0.134354 -0.09908,-0.388925 -0.06995,-0.583155 0.01405,-0.09368 0.05996,-0.186501 0.154381,-0.312108 0.07391,-0.09833 0.651524,-0.701621 1.28358,-1.340657 L 18.67235,11.996326 17.756308,11.074527 C 16.075237,9.3828895 16.072969,9.3800793 16.07365,8.9890909 c 4.46e-4,-0.2561298 0.06161,-0.3971587 0.266948,-0.6155286 0.200667,-0.2134016 0.383906,-0.3002273 0.633947,-0.3003886 0.403519,-2.602e-4 0.414218,0.0081 1.912211,1.493499 l 1.11221,1.1028623 1.187922,-1.174832 c 0.653358,-0.6461578 1.262586,-1.226255 1.353841,-1.2891049 0.153673,-0.1058389 0.18369,-0.1152053 0.406712,-0.126911 0.315938,-0.016583 0.47559,0.048526 0.702611,0.2865341 0.209454,0.2195905 0.275806,0.3658524 0.27642,0.6093243 0.001,0.4030819 -0.0074,0.4139221 -1.493313,1.9123805 l -1.103031,1.11238 1.174936,1.187043 c 0.646215,0.652875 1.2273,1.26335 1.2913,1.356614 0.115981,0.169013 0.116363,0.170489 0.116283,0.449667 -9.7e-5,0.336928 -0.04253,0.435424 -0.28736,0.666971 -0.212423,0.200901 -0.359338,0.266264 -0.599832,0.266871 -0.402799,10e-4 -0.410364,-0.0049 -1.913068,-1.494141 l -1.115367,-1.10538 -0.936692,0.931206 c -1.428631,1.420264 -1.593813,1.571715 -1.771886,1.624597 -0.227445,0.06754 -0.474118,0.05739 -0.655323,-0.02697 z"
     id="path5" />
</svg>
