<?xml version="1.0" encoding="UTF-8" standalone="no"?>
<svg
   width="24"
   height="24"
   viewBox="0 0 24 24"
   fill="none"
   stroke="currentColor"
   stroke-width="2"
   stroke-linecap="round"
   stroke-linejoin="round"
   class="feather feather-volume-2"
   version="1.1"
   id="svg1"
   sodipodi:docname="volume-2.svg"
   inkscape:version="1.4.3 (0d15f75, 2025-12-25)"
   xmlns:inkscape="http://www.inkscape.org/namespaces/inkscape"
   xmlns:sodipodi="http://sodipodi.sourceforge.net/DTD/sodipodi-0.dtd"
   xmlns="http://www.w3.org/2000/svg"
   xmlns:svg="http://www.w3.org/2000/svg">
  <defs
     id="defs1" />
  <sodipodi:namedview
     id="namedview1"
     pagecolor="#ffffff"
     bordercolor="#000000"
     borderopacity="0.25"
     inkscape:showpageshadow="2"
     inkscape:pageopacity="0.0"
     inkscape:pagecheckerboard="0"
     inkscape:deskcolor="#d1d1d1"
     inkscape:zoom="34.375"
     inkscape:cx="12"
     inkscape:cy="12"
     inkscape:window-width="1920"
     inkscape:window-height="1027"
     inkscape:window-x="-8"
     inkscape:window-y="-8"
     inkscape:window-maximized="1"
     inkscape:current-layer="svg1" />
  <polygon
     points="11 5 6 9 2 9 2 15 6 15 11 19 11 5"
     id="polygon1" />
  <path
     d="M19.07 4.93a10 10 0 0 1 0 14.14M15.54 8.46a5 5 0 0 1 0 7.07"
     id="path1" />
  <path
     style="fill:#f2f2f2;stroke-width:0.0581818"
     d="m 10.842675,19.964801 c -0.08453,-0.01253 -0.206283,-0.04961 -0.270567,-0.08241 -0.06428,-0.0328 -1.1957607,-0.922665 -2.514394,-1.977488 L 5.6601984,15.987043 3.717372,15.978976 1.7745455,15.970909 1.613218,15.89524 C 1.3062886,15.751279 1.1183349,15.523443 1.0432145,15.204289 c -0.0567337,-0.241037 -0.0567337,-6.1675411 0,-6.4085785 0.07512,-0.319154 0.2630741,-0.5469893 0.5700035,-0.6909509 L 1.7745455,8.0290909 3.717372,8.0210237 5.6601984,8.0129568 8.057714,6.0950954 c 1.3186333,-1.0548237 2.449277,-1.9442678 2.51254,-1.9765424 0.06326,-0.032275 0.185019,-0.069358 0.270567,-0.082408 0.549646,-0.083843 1.037682,0.2796193 1.128709,0.8405992 0.0417,0.2570177 0.04166,13.9897378 -4.2e-5,14.2467678 -0.03741,0.230576 -0.11518,0.389048 -0.270712,0.551664 -0.220904,0.230962 -0.534992,0.33722 -0.856101,0.289625 z M 10.014709,9.5266877 10.007273,7.0533754 8.2763636,8.4393873 C 7.2257219,9.2806807 6.4825728,9.8554223 6.3854545,9.9017908 l -0.16,0.076391 -1.6218181,0.00842 -1.6218182,0.00842 V 12 14.004971 l 1.6218182,0.0084 1.6218181,0.0084 0.16,0.07639 c 0.097118,0.04637 0.8402674,0.62111 1.8909091,1.462404 l 1.7309094,1.386012 0.0074,-2.473313 c 0.0041,-1.360321 0.0041,-3.586303 0,-4.9466243 z"
     id="path2" />
  <path
     style="fill:#f2f2f2;stroke-width:0.0581818"
     d="M 15.253649,16.470294 C 15.082264,16.40626 14.892,16.284478 14.808727,16.185514 14.587525,15.92263 14.508308,15.567249 14.600343,15.250661 c 0.04891,-0.168252 0.0754,-0.206161 0.468748,-0.670964 0.495495,-0.5855 0.785274,-1.2291 0.906087,-2.012424 0.05442,-0.352825 0.03913,-0.986234 -0.03256,-1.349352 C 15.80072,10.499236 15.458999,9.8266674 14.954068,9.2722767 14.833619,9.1400289 14.699072,8.9633016 14.655075,8.8795494 c -0.06997,-0.1331914 -0.08003,-0.185091 -0.08026,-0.4140949 -2.32e-4,-0.2275206 0.01029,-0.283317 0.08033,-0.4259347 0.140118,-0.2853235 0.408099,-0.4859119 0.728227,-0.5450907 0.340204,-0.06289 0.641396,0.058518 0.951268,0.3834464 0.852539,0.8939662 1.397721,2.0100417 1.590059,3.2551065 0.06248,0.404469 0.06921,1.255437 0.01306,1.652473 -0.176321,1.246763 -0.730307,2.405115 -1.579098,3.301805 -0.293316,0.309868 -0.460026,0.398491 -0.776436,0.412753 -0.140242,0.0063 -0.261448,-0.0046 -0.328567,-0.02972 z"
     id="path3" />
  <path
     style="fill:#f2f2f2;stroke-width:0.0581818"
     d="m 18.796334,20.01057 c -0.284258,-0.08729 -0.489597,-0.269027 -0.620023,-0.548752 -0.06637,-0.142342 -0.08138,-0.214799 -0.08138,-0.392727 0,-0.313907 0.0787,-0.463144 0.469254,-0.889855 0.174432,-0.19058 0.390402,-0.438145 0.479935,-0.550145 2.00464,-2.50769 2.519675,-5.93426 1.342372,-8.9309092 C 19.973118,7.6460099 19.405567,6.7438962 18.602528,5.8626063 18.169546,5.3874335 18.094805,5.2501768 18.09519,4.9309091 18.095403,4.7536884 18.11081,4.679317 18.17724,4.5347657 18.366257,4.123488 18.820008,3.8775619 19.230833,3.9637334 c 0.274962,0.057674 0.406614,0.1454664 0.743248,0.4956368 1.678568,1.7460658 2.724715,4.0622813 2.965652,6.5660848 0.04317,0.448608 0.0432,1.499942 6.3e-5,1.94909 -0.199898,2.081215 -0.944665,4.011558 -2.175043,5.637439 -0.411194,0.543373 -0.967837,1.152924 -1.174837,1.286503 -0.232509,0.150041 -0.532159,0.192362 -0.793583,0.112083 z"
     id="path4" />
</svg>
